<svg width="22" height="21" viewBox="0 0 22 21" fill="none" xmlns="http://www.w3.org/2000/svg">
<path fill-rule="evenodd" clip-rule="evenodd" d="M7 1C7 0.447715 7.44772 0 8 0H14C14.5523 0 15 0.447715 15 1V12H16.3386C17.2619 12 17.692 13.1445 16.9971 13.7526L11.6389 18.441C11.2704 18.7634 10.7226 18.7716 10.3447 18.4603L4.65163 13.7719C3.92741 13.1755 4.34914 12 5.28734 12H7V1ZM1 19C0.447715 19 0 19.4477 0 20C0 20.5523 0.447716 21 1 21H21C21.5523 21 22 20.5523 22 20C22 19.4477 21.5523 19 21 19H1Z" fill="#260B5D"/>
</svg>
