<svg width="28" height="28" viewBox="0 0 28 28" fill="none" xmlns="http://www.w3.org/2000/svg">
<circle cx="14" cy="14" r="14" fill="#E4E2F4"/>
<path fill-rule="evenodd" clip-rule="evenodd" d="M13.9999 7.5C13.4331 7.5 12.9736 7.9595 12.9736 8.52632V12.9737H8.52632C7.9595 12.9737 7.5 13.4332 7.5 14C7.5 14.5668 7.9595 15.0263 8.52632 15.0263H12.9736V19.4737C12.9736 20.0405 13.4331 20.5 13.9999 20.5C14.5668 20.5 15.0263 20.0405 15.0263 19.4737V15.0263H19.4737C20.0405 15.0263 20.5 14.5668 20.5 14C20.5 13.4332 20.0405 12.9737 19.4737 12.9737H15.0263V8.52632C15.0263 7.9595 14.5668 7.5 13.9999 7.5Z" fill="#62319E"/>
</svg>
