<svg width="30" height="30" viewBox="0 0 30 30" fill="none" xmlns="http://www.w3.org/2000/svg">
<rect width="30" height="30" rx="6" fill="#FEEFEC"/>
<path d="M5.19202 10V20.896C5.19202 22.5529 6.53516 23.896 8.19202 23.896H20.624C22.2809 23.896 23.624 22.5529 23.624 20.896V13.264C23.624 11.6071 22.2809 10.264 20.624 10.264H15.224C14.7734 10.264 14.408 9.89866 14.408 9.448C14.408 8.09601 13.312 7 11.96 7H8.19202C6.53516 7 5.19202 8.34315 5.19202 10Z" fill="#FC6441" stroke="#FEEFEC"/>
<path d="M11.8013 17.0947L6.70711 22.1889C6.07714 22.8189 6.52331 23.896 7.41421 23.896H20.5844C21.4206 23.896 22.2188 23.547 22.7867 22.9331L27.4469 17.895C28.0392 17.2547 27.585 16.216 26.7128 16.216H13.9226C13.127 16.216 12.3639 16.5321 11.8013 17.0947Z" fill="#FC6441" stroke="#FEEFEC"/>
</svg>
