<svg width="147" height="136" viewBox="0 0 147 136" fill="none" xmlns="http://www.w3.org/2000/svg">
<rect width="136" height="136" rx="12" fill="#C4C4C4"/>
<path d="M0 96H136V124C136 130.627 130.627 136 124 136H12C5.37259 136 0 130.627 0 124V96Z" fill="#8972AC"/>
<rect x="14" y="71" width="108.938" height="21" fill="white"/>
<path d="M32.5442 86.75L31.8649 84.5198H28.449L27.7697 86.75H25.6292L28.9361 77.342H31.365L34.6847 86.75H32.5442ZM31.3906 82.8535C30.7626 80.8326 30.408 79.6898 30.3268 79.4249C30.2499 79.16 30.1943 78.9506 30.1602 78.7968C30.0192 79.3437 29.6154 80.6959 28.9489 82.8535H31.3906Z" fill="black"/>
<path d="M43.1352 80.3054C43.1352 82.5203 42.6686 84.1737 41.7355 85.2657C40.8024 86.3578 39.39 86.9038 37.4981 86.9038C36.8316 86.9038 36.3266 86.8679 35.9831 86.7961V84.8889C36.4138 84.9966 36.8649 85.0504 37.3366 85.0504C38.1313 85.0504 38.785 84.9351 39.2977 84.7043C39.8104 84.4685 40.2026 84.1019 40.4743 83.6046C40.746 83.1022 40.9024 82.4126 40.9434 81.5359H40.8511C40.5538 82.0178 40.2103 82.3562 39.8206 82.551C39.431 82.7458 38.9439 82.8433 38.3594 82.8433C37.3802 82.8433 36.6086 82.5305 36.0446 81.905C35.4807 81.2744 35.1987 80.4003 35.1987 79.2826C35.1987 78.0778 35.5396 77.1267 36.2215 76.4294C36.9085 75.7271 37.8416 75.3759 39.0208 75.3759C39.8514 75.3759 40.5768 75.5707 41.1972 75.9603C41.8227 76.35 42.3021 76.9165 42.6353 77.6599C42.9686 78.3982 43.1352 79.28 43.1352 80.3054ZM39.067 77.2831C38.5748 77.2831 38.1902 77.4523 37.9134 77.7906C37.6365 78.129 37.4981 78.6161 37.4981 79.2518C37.4981 79.7953 37.6237 80.226 37.8749 80.5438C38.1262 80.8617 38.5081 81.0206 39.0208 81.0206C39.5027 81.0206 39.9155 80.8643 40.259 80.5515C40.6025 80.2336 40.7742 79.8696 40.7742 79.4595C40.7742 78.8494 40.6127 78.3341 40.2897 77.9137C39.9719 77.4933 39.5643 77.2831 39.067 77.2831Z" fill="black"/>
<path d="M52.133 80.3054C52.133 82.5203 51.6664 84.1737 50.7333 85.2657C49.8002 86.3578 48.3878 86.9038 46.4959 86.9038C45.8294 86.9038 45.3244 86.8679 44.9809 86.7961V84.8889C45.4116 84.9966 45.8627 85.0504 46.3344 85.0504C47.1291 85.0504 47.7828 84.9351 48.2955 84.7043C48.8082 84.4685 49.2004 84.1019 49.4721 83.6046C49.7438 83.1022 49.9002 82.4126 49.9412 81.5359H49.8489C49.5516 82.0178 49.2081 82.3562 48.8184 82.551C48.4288 82.7458 47.9417 82.8433 47.3572 82.8433C46.378 82.8433 45.6064 82.5305 45.0424 81.905C44.4785 81.2744 44.1965 80.4003 44.1965 79.2826C44.1965 78.0778 44.5374 77.1267 45.2193 76.4294C45.9063 75.7271 46.8394 75.3759 48.0186 75.3759C48.8492 75.3759 49.5746 75.5707 50.195 75.9603C50.8205 76.35 51.2999 76.9165 51.6331 77.6599C51.9664 78.3982 52.133 79.28 52.133 80.3054ZM48.0648 77.2831C47.5726 77.2831 47.188 77.4523 46.9112 77.7906C46.6343 78.129 46.4959 78.6161 46.4959 79.2518C46.4959 79.7953 46.6215 80.226 46.8727 80.5438C47.124 80.8617 47.5059 81.0206 48.0186 81.0206C48.5005 81.0206 48.9133 80.8643 49.2568 80.5515C49.6003 80.2336 49.772 79.8696 49.772 79.4595C49.772 78.8494 49.6105 78.3341 49.2875 77.9137C48.9697 77.4933 48.5621 77.2831 48.0648 77.2831Z" fill="black"/>
<path d="M61.1308 80.3054C61.1308 82.5203 60.6642 84.1737 59.7311 85.2657C58.798 86.3578 57.3856 86.9038 55.4937 86.9038C54.8272 86.9038 54.3222 86.8679 53.9787 86.7961V84.8889C54.4094 84.9966 54.8605 85.0504 55.3322 85.0504C56.1269 85.0504 56.7806 84.9351 57.2933 84.7043C57.806 84.4685 58.1982 84.1019 58.4699 83.6046C58.7416 83.1022 58.898 82.4126 58.939 81.5359H58.8467C58.5494 82.0178 58.2059 82.3562 57.8162 82.551C57.4266 82.7458 56.9395 82.8433 56.355 82.8433C55.3758 82.8433 54.6042 82.5305 54.0402 81.905C53.4763 81.2744 53.1943 80.4003 53.1943 79.2826C53.1943 78.0778 53.5352 77.1267 54.2171 76.4294C54.9041 75.7271 55.8372 75.3759 57.0164 75.3759C57.847 75.3759 58.5724 75.5707 59.1928 75.9603C59.8183 76.35 60.2977 76.9165 60.6309 77.6599C60.9642 78.3982 61.1308 79.28 61.1308 80.3054ZM57.0626 77.2831C56.5704 77.2831 56.1859 77.4523 55.909 77.7906C55.6321 78.129 55.4937 78.6161 55.4937 79.2518C55.4937 79.7953 55.6193 80.226 55.8705 80.5438C56.1218 80.8617 56.5037 81.0206 57.0164 81.0206C57.4984 81.0206 57.9111 80.8643 58.2546 80.5515C58.5981 80.2336 58.7698 79.8696 58.7698 79.4595C58.7698 78.8494 58.6083 78.3341 58.2853 77.9137C57.9675 77.4933 57.5599 77.2831 57.0626 77.2831Z" fill="black"/>
<path d="M68.5995 86.75L67.9202 84.5198H64.5043L63.825 86.75H61.6845L64.9914 77.342H67.4203L70.74 86.75H68.5995ZM67.4459 82.8535C66.8179 80.8326 66.4633 79.6898 66.3821 79.4249C66.3052 79.16 66.2496 78.9506 66.2155 78.7968C66.0745 79.3437 65.6707 80.6959 65.0042 82.8535H67.4459Z" fill="black"/>
<path d="M77.6614 86.75L76.9821 84.5198H73.5662L72.8869 86.75H70.7464L74.0533 77.342H76.4822L79.8019 86.75H77.6614ZM76.5078 82.8535C75.8798 80.8326 75.5251 79.6898 75.444 79.4249C75.3671 79.16 75.3115 78.9506 75.2773 78.7968C75.1364 79.3437 74.7326 80.6959 74.0661 82.8535H76.5078Z" fill="black"/>
<path d="M101.362 82.8124H99.3817V77.3907L99.4009 76.4999L99.433 75.5258C99.104 75.8547 98.8754 76.0705 98.7473 76.173L97.6706 77.0382L96.7157 75.8462L99.7342 73.4429H101.362V82.8124Z" fill="black"/>
<path d="M107.373 76.8267C108.279 76.8267 108.999 77.0809 109.533 77.5894C110.071 78.0978 110.341 78.7942 110.341 79.6786C110.341 80.7253 110.018 81.5307 109.373 82.0947C108.728 82.6586 107.805 82.9406 106.604 82.9406C105.562 82.9406 104.72 82.7719 104.079 82.4343V80.7232C104.417 80.9026 104.81 81.05 105.258 81.1654C105.707 81.2765 106.132 81.332 106.534 81.332C107.743 81.332 108.347 80.8364 108.347 79.8452C108.347 78.901 107.722 78.4289 106.47 78.4289C106.243 78.4289 105.993 78.4524 105.72 78.4994C105.446 78.5421 105.224 78.5891 105.053 78.6404L104.265 78.2174L104.618 73.4429H109.7V75.122H106.354L106.181 76.9613L106.406 76.9164C106.666 76.8566 106.989 76.8267 107.373 76.8267Z" fill="black"/>
<path d="M118.012 82.8124H111.462V81.4346L113.814 79.0569C114.51 78.3434 114.966 77.85 115.179 77.5765C115.393 77.2988 115.547 77.0425 115.641 76.8075C115.735 76.5725 115.782 76.329 115.782 76.0769C115.782 75.7009 115.677 75.4211 115.468 75.2374C115.262 75.0536 114.987 74.9618 114.641 74.9618C114.278 74.9618 113.925 75.0451 113.583 75.2117C113.242 75.3784 112.885 75.6155 112.513 75.9231L111.436 74.6478C111.898 74.2547 112.28 73.977 112.584 73.8146C112.887 73.6523 113.218 73.5284 113.577 73.4429C113.936 73.3532 114.337 73.3083 114.782 73.3083C115.367 73.3083 115.884 73.4152 116.333 73.6288C116.781 73.8424 117.13 74.1415 117.377 74.526C117.625 74.9105 117.749 75.3506 117.749 75.8462C117.749 76.2777 117.672 76.6836 117.518 77.0638C117.369 77.4398 117.134 77.8265 116.813 78.2238C116.497 78.6212 115.938 79.1873 115.134 79.9221L113.929 81.0565V81.1462H118.012V82.8124Z" fill="black"/>
<path d="M100.01 87.2909H100.266C100.517 87.2909 100.703 87.249 100.822 87.1653C100.942 87.0815 101.002 86.95 101.002 86.7705C101.002 86.5928 100.94 86.4663 100.817 86.3911C100.696 86.3159 100.507 86.2783 100.251 86.2783H100.01V87.2909ZM100.01 87.9369V89.375H99.2151V85.6272H100.307C100.816 85.6272 101.193 85.7203 101.438 85.9066C101.682 86.0912 101.804 86.3723 101.804 86.75C101.804 86.9705 101.744 87.167 101.622 87.3396C101.501 87.5105 101.329 87.6447 101.107 87.7421C101.671 88.5846 102.038 89.1289 102.209 89.375H101.327L100.433 87.9369H100.01Z" fill="black"/>
<path d="M105.731 85.6272V88.0522C105.731 88.3291 105.669 88.5718 105.544 88.7803C105.421 88.9888 105.243 89.1486 105.009 89.2596C104.774 89.3707 104.498 89.4263 104.178 89.4263C103.696 89.4263 103.322 89.3032 103.055 89.0571C102.789 88.8093 102.655 88.4709 102.655 88.042V85.6272H103.447V87.9215C103.447 88.2103 103.505 88.4222 103.622 88.5573C103.738 88.6923 103.93 88.7598 104.198 88.7598C104.458 88.7598 104.646 88.6923 104.762 88.5573C104.88 88.4205 104.939 88.2069 104.939 87.9164V85.6272H105.731Z" fill="black"/>
<path d="M108.861 88.3342C108.861 88.6726 108.739 88.9392 108.495 89.134C108.252 89.3289 107.914 89.4263 107.48 89.4263C107.08 89.4263 106.726 89.3511 106.418 89.2007V88.4624C106.671 88.5752 106.885 88.6547 107.059 88.7008C107.235 88.7469 107.396 88.77 107.541 88.77C107.716 88.77 107.849 88.7367 107.941 88.67C108.035 88.6034 108.082 88.5043 108.082 88.3727C108.082 88.2992 108.062 88.2343 108.021 88.1779C107.98 88.1198 107.919 88.0642 107.839 88.0112C107.76 87.9583 107.599 87.8737 107.354 87.7574C107.125 87.6498 106.953 87.5464 106.839 87.4473C106.724 87.3481 106.633 87.2328 106.565 87.1012C106.496 86.9696 106.462 86.8158 106.462 86.6398C106.462 86.3082 106.574 86.0476 106.798 85.8579C107.023 85.6682 107.334 85.5734 107.731 85.5734C107.926 85.5734 108.111 85.5964 108.287 85.6426C108.465 85.6887 108.65 85.7537 108.844 85.8374L108.587 86.4552C108.387 86.3732 108.221 86.3159 108.09 86.2834C107.96 86.251 107.832 86.2347 107.705 86.2347C107.555 86.2347 107.44 86.2698 107.359 86.3398C107.279 86.4099 107.239 86.5013 107.239 86.6141C107.239 86.6842 107.255 86.7457 107.287 86.7987C107.32 86.85 107.371 86.9004 107.441 86.95C107.513 86.9978 107.681 87.085 107.946 87.2114C108.297 87.3789 108.537 87.5472 108.667 87.7164C108.797 87.8839 108.861 88.0898 108.861 88.3342Z" fill="black"/>
<path d="M92.0938 71H14V92H92.0938M92.0938 71H122.938V92H92.0938M92.0938 71V92" stroke="black"/>
<rect x="111.125" y="85.4375" width="6.5625" height="1.3125" fill="white"/>
<rect x="111.125" y="86.75" width="6.5625" height="1.3125" fill="#0E0AFF"/>
<rect x="111.125" y="88.0625" width="6.5625" height="1.3125" fill="#FF0A0A"/>
<path d="M117.787 85.4375V85.3375H117.688H111.125H111.025V85.4375V89.375V89.475H111.125H117.688H117.787V89.375V85.4375Z" stroke="black" stroke-width="0.2"/>
<path d="M16.2601 102.426C16.2601 102.921 16.1668 103.429 15.9801 103.952C15.8028 104.465 15.5648 104.983 15.2661 105.506C14.9768 106.029 14.6501 106.542 14.2861 107.046C13.9221 107.541 13.5581 108.012 13.1941 108.46L12.5081 109.062V109.118L13.4041 108.964H16.4561V110H10.8841V109.594C11.0894 109.379 11.3368 109.113 11.6261 108.796C11.9154 108.479 12.2141 108.129 12.5221 107.746C12.8394 107.354 13.1474 106.943 13.4461 106.514C13.7541 106.075 14.0294 105.632 14.2721 105.184C14.5241 104.736 14.7248 104.293 14.8741 103.854C15.0234 103.415 15.0981 103 15.0981 102.608C15.0981 102.151 14.9674 101.773 14.7061 101.474C14.4448 101.166 14.0481 101.012 13.5161 101.012C13.1614 101.012 12.8161 101.087 12.4801 101.236C12.1441 101.376 11.8548 101.539 11.6121 101.726L11.1501 100.928C11.4768 100.648 11.8641 100.429 12.3121 100.27C12.7601 100.111 13.2408 100.032 13.7541 100.032C14.1554 100.032 14.5101 100.093 14.8181 100.214C15.1261 100.326 15.3874 100.489 15.6021 100.704C15.8168 100.919 15.9801 101.175 16.0921 101.474C16.2041 101.763 16.2601 102.081 16.2601 102.426ZM17.963 103.168C17.963 102.72 18.0283 102.305 18.159 101.922C18.2897 101.539 18.481 101.208 18.733 100.928C18.985 100.648 19.2977 100.429 19.671 100.27C20.0537 100.111 20.497 100.032 21.001 100.032C21.953 100.032 22.695 100.34 23.227 100.956C23.759 101.572 24.025 102.44 24.025 103.56C24.025 104.615 23.9037 105.539 23.661 106.332C23.4277 107.116 23.101 107.779 22.681 108.32C22.261 108.861 21.7617 109.286 21.183 109.594C20.6137 109.893 19.993 110.084 19.321 110.168L19.069 109.272C19.6103 109.188 20.0957 109.029 20.525 108.796C20.9637 108.563 21.337 108.269 21.645 107.914C21.9623 107.559 22.219 107.158 22.415 106.71C22.611 106.253 22.7463 105.758 22.821 105.226C22.569 105.525 22.289 105.735 21.981 105.856C21.6823 105.968 21.2857 106.024 20.791 106.024C20.4083 106.024 20.0443 105.963 19.699 105.842C19.363 105.711 19.0643 105.525 18.803 105.282C18.5417 105.039 18.3363 104.741 18.187 104.386C18.0377 104.031 17.963 103.625 17.963 103.168ZM19.125 103.056C19.125 103.719 19.2977 104.218 19.643 104.554C19.9977 104.881 20.4597 105.044 21.029 105.044C21.4863 105.044 21.8783 104.969 22.205 104.82C22.5317 104.671 22.765 104.475 22.905 104.232C22.9237 104.111 22.933 104.003 22.933 103.91C22.933 103.817 22.933 103.719 22.933 103.616C22.933 103.28 22.891 102.958 22.807 102.65C22.7323 102.333 22.6157 102.053 22.457 101.81C22.2983 101.558 22.0883 101.362 21.827 101.222C21.575 101.082 21.2763 101.012 20.931 101.012C20.3617 101.012 19.9183 101.194 19.601 101.558C19.2837 101.913 19.125 102.412 19.125 103.056ZM32.0043 110.056C31.8457 110.112 31.6777 110.145 31.5003 110.154C31.3323 110.163 31.1783 110.168 31.0383 110.168C30.189 110.168 29.5357 109.869 29.0783 109.272C28.621 108.675 28.3923 107.751 28.3923 106.5C28.3923 105.305 28.6443 104.405 29.1483 103.798C29.6523 103.191 30.3803 102.888 31.3323 102.888C31.5937 102.888 31.8177 102.907 32.0043 102.944V100.2H33.0683V102.958C33.2363 102.93 33.3857 102.911 33.5163 102.902C33.647 102.893 33.773 102.888 33.8943 102.888C34.8183 102.888 35.5137 103.159 35.9803 103.7C36.447 104.232 36.6803 105.119 36.6803 106.36C36.6803 106.948 36.615 107.48 36.4843 107.956C36.363 108.423 36.181 108.819 35.9383 109.146C35.6957 109.473 35.397 109.725 35.0423 109.902C34.697 110.079 34.2957 110.168 33.8383 110.168C33.7543 110.168 33.6283 110.159 33.4603 110.14C33.3017 110.131 33.171 110.107 33.0683 110.07V112.8H32.0043V110.056ZM33.6843 103.812C33.5723 103.812 33.4697 103.817 33.3763 103.826C33.2923 103.826 33.185 103.845 33.0543 103.882V109.202C33.1477 109.221 33.2503 109.235 33.3623 109.244C33.4837 109.244 33.6143 109.244 33.7543 109.244C34.3517 109.244 34.7997 108.997 35.0983 108.502C35.4063 108.007 35.5603 107.293 35.5603 106.36C35.5603 105.567 35.4203 104.946 35.1403 104.498C34.8697 104.041 34.3843 103.812 33.6843 103.812ZM31.3183 109.244C31.4303 109.244 31.5423 109.239 31.6543 109.23C31.7663 109.221 31.8877 109.202 32.0183 109.174V103.868C31.9063 103.849 31.799 103.835 31.6963 103.826C31.603 103.817 31.4863 103.812 31.3463 103.812C30.7677 103.812 30.315 104.031 29.9883 104.47C29.671 104.899 29.5123 105.576 29.5123 106.5C29.5123 106.892 29.545 107.256 29.6103 107.592C29.685 107.928 29.797 108.222 29.9463 108.474C30.0957 108.717 30.2823 108.908 30.5063 109.048C30.7397 109.179 31.0103 109.244 31.3183 109.244ZM43.07 109.44C42.79 109.664 42.4353 109.841 42.006 109.972C41.586 110.103 41.138 110.168 40.662 110.168C40.13 110.168 39.668 110.084 39.276 109.916C38.884 109.739 38.562 109.491 38.31 109.174C38.058 108.847 37.8713 108.46 37.75 108.012C37.6286 107.564 37.568 107.06 37.568 106.5C37.568 105.305 37.834 104.395 38.366 103.77C38.898 103.145 39.6586 102.832 40.648 102.832C40.9653 102.832 41.2826 102.869 41.6 102.944C41.9173 103.009 42.202 103.14 42.454 103.336C42.706 103.532 42.9113 103.812 43.07 104.176C43.2286 104.531 43.308 105.002 43.308 105.59C43.308 105.898 43.28 106.239 43.224 106.612H38.73C38.73 107.023 38.772 107.387 38.856 107.704C38.94 108.021 39.0706 108.292 39.248 108.516C39.4253 108.731 39.654 108.899 39.934 109.02C40.2233 109.132 40.5733 109.188 40.984 109.188C41.3013 109.188 41.6186 109.132 41.936 109.02C42.2533 108.908 42.4913 108.777 42.65 108.628L43.07 109.44ZM40.662 103.812C40.1113 103.812 39.668 103.957 39.332 104.246C39.0053 104.535 38.8093 105.03 38.744 105.73H42.216C42.216 105.021 42.0806 104.526 41.81 104.246C41.5393 103.957 41.1566 103.812 40.662 103.812ZM44.6593 103.014C44.986 102.995 45.3267 102.972 45.6813 102.944C46.0453 102.916 46.4933 102.902 47.0253 102.902C47.9493 102.902 48.612 103.047 49.0133 103.336C49.4147 103.616 49.6153 104.045 49.6153 104.624C49.6153 104.951 49.5173 105.273 49.3213 105.59C49.1347 105.898 48.822 106.127 48.3833 106.276V106.332C48.934 106.435 49.3213 106.626 49.5453 106.906C49.7693 107.186 49.8813 107.559 49.8813 108.026C49.8813 108.754 49.62 109.281 49.0973 109.608C48.5747 109.935 47.7907 110.098 46.7453 110.098C46.3533 110.098 45.9893 110.084 45.6533 110.056C45.3173 110.037 44.986 110.014 44.6593 109.986V103.014ZM45.7793 109.062C45.9567 109.081 46.1293 109.095 46.2973 109.104C46.4747 109.113 46.68 109.118 46.9133 109.118C47.5387 109.118 48.0007 109.029 48.2993 108.852C48.6073 108.675 48.7613 108.371 48.7613 107.942C48.7613 107.606 48.6307 107.335 48.3693 107.13C48.1173 106.915 47.6647 106.808 47.0113 106.808H45.7793V109.062ZM47.1513 105.954C47.3193 105.954 47.4827 105.926 47.6413 105.87C47.8 105.814 47.94 105.739 48.0613 105.646C48.192 105.543 48.2947 105.427 48.3693 105.296C48.4533 105.165 48.4953 105.025 48.4953 104.876C48.4953 104.503 48.3833 104.246 48.1593 104.106C47.9353 103.957 47.5433 103.882 46.9833 103.882C46.6847 103.882 46.4467 103.887 46.2693 103.896C46.1013 103.905 45.938 103.915 45.7793 103.924V105.954H47.1513ZM59.7241 102.426C59.7241 102.921 59.6307 103.429 59.4441 103.952C59.2667 104.465 59.0287 104.983 58.7301 105.506C58.4407 106.029 58.1141 106.542 57.7501 107.046C57.3861 107.541 57.0221 108.012 56.6581 108.46L55.9721 109.062V109.118L56.8681 108.964H59.9201V110H54.3481V109.594C54.5534 109.379 54.8007 109.113 55.0901 108.796C55.3794 108.479 55.6781 108.129 55.9861 107.746C56.3034 107.354 56.6114 106.943 56.9101 106.514C57.2181 106.075 57.4934 105.632 57.7361 105.184C57.9881 104.736 58.1887 104.293 58.3381 103.854C58.4874 103.415 58.5621 103 58.5621 102.608C58.5621 102.151 58.4314 101.773 58.1701 101.474C57.9087 101.166 57.5121 101.012 56.9801 101.012C56.6254 101.012 56.2801 101.087 55.9441 101.236C55.6081 101.376 55.3187 101.539 55.0761 101.726L54.6141 100.928C54.9407 100.648 55.3281 100.429 55.7761 100.27C56.2241 100.111 56.7047 100.032 57.2181 100.032C57.6194 100.032 57.9741 100.093 58.2821 100.214C58.5901 100.326 58.8514 100.489 59.0661 100.704C59.2807 100.919 59.4441 101.175 59.5561 101.474C59.6681 101.763 59.7241 102.081 59.7241 102.426ZM63.975 109.188C64.2923 109.188 64.5863 109.141 64.857 109.048C65.1277 108.955 65.361 108.819 65.557 108.642C65.753 108.455 65.907 108.236 66.019 107.984C66.131 107.732 66.187 107.457 66.187 107.158C66.187 106.505 65.991 106.019 65.599 105.702C65.2163 105.385 64.6843 105.226 64.003 105.226H62.967V104.82L64.983 101.712L65.627 101.096L64.717 101.236H61.945V100.2H66.943V100.606L64.717 103.952L64.227 104.358V104.386L64.703 104.288C65.0763 104.297 65.4217 104.367 65.739 104.498C66.0563 104.619 66.3317 104.801 66.565 105.044C66.7983 105.277 66.9803 105.562 67.111 105.898C67.2417 106.225 67.307 106.598 67.307 107.018C67.307 107.522 67.2183 107.97 67.041 108.362C66.8637 108.754 66.621 109.085 66.313 109.356C66.0143 109.617 65.6597 109.818 65.249 109.958C64.8383 110.098 64.4043 110.168 63.947 110.168C63.527 110.168 63.149 110.135 62.813 110.07C62.477 110.005 62.183 109.921 61.931 109.818L62.225 108.824C62.4397 108.927 62.6917 109.015 62.981 109.09C63.2797 109.155 63.611 109.188 63.975 109.188ZM69.1919 103.714C69.1919 103.462 69.2619 103.266 69.4019 103.126C69.5512 102.977 69.7472 102.902 69.9899 102.902C70.2419 102.902 70.4426 102.977 70.5919 103.126C70.7412 103.266 70.8159 103.462 70.8159 103.714C70.8159 103.957 70.7412 104.153 70.5919 104.302C70.4426 104.451 70.2419 104.526 69.9899 104.526C69.7472 104.526 69.5512 104.451 69.4019 104.302C69.2619 104.153 69.1919 103.957 69.1919 103.714ZM69.1919 109.356C69.1919 109.104 69.2619 108.908 69.4019 108.768C69.5512 108.619 69.7472 108.544 69.9899 108.544C70.2419 108.544 70.4426 108.619 70.5919 108.768C70.7412 108.908 70.8159 109.104 70.8159 109.356C70.8159 109.599 70.7412 109.795 70.5919 109.944C70.4426 110.093 70.2419 110.168 69.9899 110.168C69.7472 110.168 69.5512 110.093 69.4019 109.944C69.2619 109.795 69.1919 109.599 69.1919 109.356ZM71.1724 105.1C71.1724 103.42 71.4431 102.155 71.9844 101.306C72.5351 100.457 73.3331 100.032 74.3784 100.032C75.5077 100.032 76.3244 100.452 76.8284 101.292C77.3417 102.123 77.5984 103.392 77.5984 105.1C77.5984 106.78 77.3231 108.045 76.7724 108.894C76.2311 109.743 75.4331 110.168 74.3784 110.168C73.2677 110.168 72.4557 109.725 71.9424 108.838C71.4291 107.951 71.1724 106.705 71.1724 105.1ZM72.3344 105.1C72.3344 105.707 72.3717 106.262 72.4464 106.766C72.5304 107.261 72.6564 107.69 72.8244 108.054C72.9924 108.409 73.2024 108.689 73.4544 108.894C73.7157 109.09 74.0237 109.188 74.3784 109.188C75.0877 109.188 75.6057 108.861 75.9324 108.208C76.2684 107.545 76.4364 106.509 76.4364 105.1C76.4364 104.503 76.3991 103.952 76.3244 103.448C76.2591 102.944 76.1424 102.51 75.9744 102.146C75.8157 101.782 75.6057 101.502 75.3444 101.306C75.0831 101.11 74.7611 101.012 74.3784 101.012C73.6784 101.012 73.1604 101.343 72.8244 102.006C72.4977 102.669 72.3344 103.7 72.3344 105.1ZM84.0333 102.426C84.0333 102.921 83.94 103.429 83.7533 103.952C83.576 104.465 83.338 104.983 83.0393 105.506C82.75 106.029 82.4233 106.542 82.0593 107.046C81.6953 107.541 81.3313 108.012 80.9673 108.46L80.2813 109.062V109.118L81.1773 108.964H84.2293V110H78.6573V109.594C78.8626 109.379 79.11 109.113 79.3993 108.796C79.6886 108.479 79.9873 108.129 80.2953 107.746C80.6126 107.354 80.9206 106.943 81.2193 106.514C81.5273 106.075 81.8026 105.632 82.0453 105.184C82.2973 104.736 82.498 104.293 82.6473 103.854C82.7966 103.415 82.8713 103 82.8713 102.608C82.8713 102.151 82.7406 101.773 82.4793 101.474C82.218 101.166 81.8213 101.012 81.2893 101.012C80.9346 101.012 80.5893 101.087 80.2533 101.236C79.9173 101.376 79.628 101.539 79.3853 101.726L78.9233 100.928C79.25 100.648 79.6373 100.429 80.0853 100.27C80.5333 100.111 81.014 100.032 81.5273 100.032C81.9286 100.032 82.2833 100.093 82.5913 100.214C82.8993 100.326 83.1606 100.489 83.3753 100.704C83.59 100.919 83.7533 101.175 83.8653 101.474C83.9773 101.763 84.0333 102.081 84.0333 102.426ZM88.0355 105.45H91.4235V106.486H88.0355V105.45ZM94.6478 105.1C94.6478 103.42 94.9184 102.155 95.4598 101.306C96.0104 100.457 96.8084 100.032 97.8538 100.032C98.9831 100.032 99.7998 100.452 100.304 101.292C100.817 102.123 101.074 103.392 101.074 105.1C101.074 106.78 100.798 108.045 100.248 108.894C99.7064 109.743 98.9084 110.168 97.8538 110.168C96.7431 110.168 95.9311 109.725 95.4178 108.838C94.9044 107.951 94.6478 106.705 94.6478 105.1ZM95.8098 105.1C95.8098 105.707 95.8471 106.262 95.9218 106.766C96.0058 107.261 96.1318 107.69 96.2998 108.054C96.4678 108.409 96.6778 108.689 96.9298 108.894C97.1911 109.09 97.4991 109.188 97.8538 109.188C98.5631 109.188 99.0811 108.861 99.4078 108.208C99.7438 107.545 99.9118 106.509 99.9118 105.1C99.9118 104.503 99.8744 103.952 99.7998 103.448C99.7344 102.944 99.6178 102.51 99.4498 102.146C99.2911 101.782 99.0811 101.502 98.8198 101.306C98.5584 101.11 98.2364 101.012 97.8538 101.012C97.1538 101.012 96.6358 101.343 96.2998 102.006C95.9731 102.669 95.8098 103.7 95.8098 105.1ZM101.867 105.1C101.867 103.42 102.137 102.155 102.679 101.306C103.229 100.457 104.027 100.032 105.073 100.032C106.202 100.032 107.019 100.452 107.523 101.292C108.036 102.123 108.293 103.392 108.293 105.1C108.293 106.78 108.017 108.045 107.467 108.894C106.925 109.743 106.127 110.168 105.073 110.168C103.962 110.168 103.15 109.725 102.637 108.838C102.123 107.951 101.867 106.705 101.867 105.1ZM103.029 105.1C103.029 105.707 103.066 106.262 103.141 106.766C103.225 107.261 103.351 107.69 103.519 108.054C103.687 108.409 103.897 108.689 104.149 108.894C104.41 109.09 104.718 109.188 105.073 109.188C105.782 109.188 106.3 108.861 106.627 108.208C106.963 107.545 107.131 106.509 107.131 105.1C107.131 104.503 107.093 103.952 107.019 103.448C106.953 102.944 106.837 102.51 106.669 102.146C106.51 101.782 106.3 101.502 106.039 101.306C105.777 101.11 105.455 101.012 105.073 101.012C104.373 101.012 103.855 101.343 103.519 102.006C103.192 102.669 103.029 103.7 103.029 105.1ZM109.758 103.714C109.758 103.462 109.828 103.266 109.968 103.126C110.117 102.977 110.313 102.902 110.556 102.902C110.808 102.902 111.008 102.977 111.158 103.126C111.307 103.266 111.382 103.462 111.382 103.714C111.382 103.957 111.307 104.153 111.158 104.302C111.008 104.451 110.808 104.526 110.556 104.526C110.313 104.526 110.117 104.451 109.968 104.302C109.828 104.153 109.758 103.957 109.758 103.714ZM109.758 109.356C109.758 109.104 109.828 108.908 109.968 108.768C110.117 108.619 110.313 108.544 110.556 108.544C110.808 108.544 111.008 108.619 111.158 108.768C111.307 108.908 111.382 109.104 111.382 109.356C111.382 109.599 111.307 109.795 111.158 109.944C111.008 110.093 110.808 110.168 110.556 110.168C110.313 110.168 110.117 110.093 109.968 109.944C109.828 109.795 109.758 109.599 109.758 109.356ZM112.648 108.964H114.608V102.188L114.748 101.362L114.188 102.02L112.648 103.126L112.116 102.412L115.196 100.032H115.7V108.964H117.618V110H112.648V108.964ZM125.243 107.046C125.243 107.475 125.178 107.881 125.047 108.264C124.916 108.637 124.725 108.969 124.473 109.258C124.221 109.538 123.908 109.762 123.535 109.93C123.162 110.089 122.737 110.168 122.261 110.168C121.794 110.168 121.374 110.093 121.001 109.944C120.628 109.795 120.306 109.575 120.035 109.286C119.764 108.987 119.554 108.623 119.405 108.194C119.265 107.765 119.195 107.27 119.195 106.71C119.195 105.786 119.312 104.937 119.545 104.162C119.788 103.378 120.119 102.697 120.539 102.118C120.959 101.539 121.454 101.073 122.023 100.718C122.602 100.354 123.227 100.125 123.899 100.032L124.137 100.928C123.614 101.021 123.138 101.199 122.709 101.46C122.28 101.721 121.902 102.043 121.575 102.426C121.258 102.809 120.996 103.238 120.791 103.714C120.586 104.19 120.446 104.68 120.371 105.184C120.52 104.932 120.772 104.703 121.127 104.498C121.482 104.283 121.916 104.176 122.429 104.176C123.306 104.176 123.992 104.428 124.487 104.932C124.991 105.436 125.243 106.141 125.243 107.046ZM124.081 107.158C124.081 106.495 123.927 105.996 123.619 105.66C123.311 105.324 122.835 105.156 122.191 105.156C121.734 105.156 121.337 105.268 121.001 105.492C120.674 105.716 120.446 105.968 120.315 106.248C120.296 106.379 120.287 106.486 120.287 106.57C120.287 106.654 120.287 106.747 120.287 106.85C120.287 107.139 120.324 107.424 120.399 107.704C120.483 107.984 120.609 108.236 120.777 108.46C120.945 108.675 121.15 108.852 121.393 108.992C121.645 109.123 121.939 109.188 122.275 109.188C122.546 109.188 122.788 109.137 123.003 109.034C123.227 108.931 123.418 108.791 123.577 108.614C123.736 108.437 123.857 108.222 123.941 107.97C124.034 107.718 124.081 107.447 124.081 107.158Z" fill="#260B5D"/>
<path d="M56.3738 128.964H58.3338V122.188L58.4738 121.362L57.9138 122.02L56.3738 123.126L55.8418 122.412L58.9218 120.032H59.4258V128.964H61.3438V130H56.3738V128.964ZM62.6827 125.1C62.6827 123.42 62.9533 122.155 63.4947 121.306C64.0453 120.457 64.8433 120.032 65.8887 120.032C67.018 120.032 67.8347 120.452 68.3387 121.292C68.852 122.123 69.1087 123.392 69.1087 125.1C69.1087 126.78 68.8333 128.045 68.2827 128.894C67.7413 129.743 66.9433 130.168 65.8887 130.168C64.778 130.168 63.966 129.725 63.4527 128.838C62.9393 127.951 62.6827 126.705 62.6827 125.1ZM63.8447 125.1C63.8447 125.707 63.882 126.262 63.9567 126.766C64.0407 127.261 64.1667 127.69 64.3347 128.054C64.5027 128.409 64.7127 128.689 64.9647 128.894C65.226 129.09 65.534 129.188 65.8887 129.188C66.598 129.188 67.116 128.861 67.4427 128.208C67.7787 127.545 67.9467 126.509 67.9467 125.1C67.9467 124.503 67.9093 123.952 67.8347 123.448C67.7693 122.944 67.6527 122.51 67.4847 122.146C67.326 121.782 67.116 121.502 66.8547 121.306C66.5933 121.11 66.2713 121.012 65.8887 121.012C65.1887 121.012 64.6707 121.343 64.3347 122.006C64.008 122.669 63.8447 123.7 63.8447 125.1ZM69.9016 125.1C69.9016 123.42 70.1722 122.155 70.7136 121.306C71.2642 120.457 72.0622 120.032 73.1076 120.032C74.2369 120.032 75.0536 120.452 75.5576 121.292C76.0709 122.123 76.3276 123.392 76.3276 125.1C76.3276 126.78 76.0522 128.045 75.5016 128.894C74.9602 129.743 74.1622 130.168 73.1076 130.168C71.9969 130.168 71.1849 129.725 70.6716 128.838C70.1582 127.951 69.9016 126.705 69.9016 125.1ZM71.0636 125.1C71.0636 125.707 71.1009 126.262 71.1756 126.766C71.2596 127.261 71.3856 127.69 71.5536 128.054C71.7216 128.409 71.9316 128.689 72.1836 128.894C72.4449 129.09 72.7529 129.188 73.1076 129.188C73.8169 129.188 74.3349 128.861 74.6616 128.208C74.9976 127.545 75.1656 126.509 75.1656 125.1C75.1656 124.503 75.1282 123.952 75.0536 123.448C74.9882 122.944 74.8716 122.51 74.7036 122.146C74.5449 121.782 74.3349 121.502 74.0736 121.306C73.8122 121.11 73.4902 121.012 73.1076 121.012C72.4076 121.012 71.8896 121.343 71.5536 122.006C71.2269 122.669 71.0636 123.7 71.0636 125.1ZM77.2045 129.398C77.2045 129.174 77.2791 128.992 77.4285 128.852C77.5778 128.712 77.7691 128.642 78.0025 128.642C78.2918 128.642 78.5251 128.745 78.7025 128.95C78.8891 129.155 78.9825 129.454 78.9825 129.846C78.9825 130.182 78.9358 130.476 78.8425 130.728C78.7491 130.98 78.6278 131.195 78.4785 131.372C78.3291 131.559 78.1658 131.708 77.9885 131.82C77.8111 131.941 77.6338 132.03 77.4565 132.086L77.1065 131.54C77.4425 131.409 77.6898 131.204 77.8485 130.924C78.0165 130.653 78.1005 130.378 78.1005 130.098C78.0165 130.126 77.9371 130.14 77.8625 130.14C77.6758 130.14 77.5171 130.079 77.3865 129.958C77.2651 129.827 77.2045 129.641 77.2045 129.398ZM81.6735 125.1C81.6735 123.42 81.9442 122.155 82.4855 121.306C83.0362 120.457 83.8342 120.032 84.8795 120.032C86.0089 120.032 86.8255 120.452 87.3295 121.292C87.8429 122.123 88.0995 123.392 88.0995 125.1C88.0995 126.78 87.8242 128.045 87.2735 128.894C86.7322 129.743 85.9342 130.168 84.8795 130.168C83.7689 130.168 82.9569 129.725 82.4435 128.838C81.9302 127.951 81.6735 126.705 81.6735 125.1ZM82.8355 125.1C82.8355 125.707 82.8729 126.262 82.9475 126.766C83.0315 127.261 83.1575 127.69 83.3255 128.054C83.4935 128.409 83.7035 128.689 83.9555 128.894C84.2169 129.09 84.5249 129.188 84.8795 129.188C85.5889 129.188 86.1069 128.861 86.4335 128.208C86.7695 127.545 86.9375 126.509 86.9375 125.1C86.9375 124.503 86.9002 123.952 86.8255 123.448C86.7602 122.944 86.6435 122.51 86.4755 122.146C86.3169 121.782 86.1069 121.502 85.8455 121.306C85.5842 121.11 85.2622 121.012 84.8795 121.012C84.1795 121.012 83.6615 121.343 83.3255 122.006C82.9989 122.669 82.8355 123.7 82.8355 125.1ZM88.8924 125.1C88.8924 123.42 89.1631 122.155 89.7044 121.306C90.2551 120.457 91.0531 120.032 92.0984 120.032C93.2278 120.032 94.0444 120.452 94.5484 121.292C95.0618 122.123 95.3184 123.392 95.3184 125.1C95.3184 126.78 95.0431 128.045 94.4924 128.894C93.9511 129.743 93.1531 130.168 92.0984 130.168C90.9878 130.168 90.1758 129.725 89.6624 128.838C89.1491 127.951 88.8924 126.705 88.8924 125.1ZM90.0544 125.1C90.0544 125.707 90.0918 126.262 90.1664 126.766C90.2504 127.261 90.3764 127.69 90.5444 128.054C90.7124 128.409 90.9224 128.689 91.1744 128.894C91.4358 129.09 91.7438 129.188 92.0984 129.188C92.8078 129.188 93.3258 128.861 93.6524 128.208C93.9884 127.545 94.1564 126.509 94.1564 125.1C94.1564 124.503 94.1191 123.952 94.0444 123.448C93.9791 122.944 93.8624 122.51 93.6944 122.146C93.5358 121.782 93.3258 121.502 93.0644 121.306C92.8031 121.11 92.4811 121.012 92.0984 121.012C91.3984 121.012 90.8804 121.343 90.5444 122.006C90.2178 122.669 90.0544 123.7 90.0544 125.1ZM95.9713 125.296H96.9653V120.298C97.32 120.214 97.698 120.158 98.0993 120.13C98.51 120.102 98.916 120.088 99.3173 120.088C99.7467 120.088 100.167 120.13 100.577 120.214C100.997 120.298 101.366 120.452 101.683 120.676C102.01 120.9 102.271 121.203 102.467 121.586C102.663 121.969 102.761 122.459 102.761 123.056C102.761 123.644 102.659 124.134 102.453 124.526C102.257 124.918 101.991 125.235 101.655 125.478C101.329 125.721 100.951 125.893 100.521 125.996C100.101 126.099 99.672 126.155 99.2333 126.164L98.1273 126.178V127.172H100.451V128.04H98.1273V130H96.9653V128.04H95.9713V127.172H96.9653V126.164H95.9713V125.296ZM99.3453 121.068C99.1027 121.068 98.8693 121.077 98.6453 121.096C98.4307 121.105 98.258 121.124 98.1273 121.152V125.212H99.1913C99.4713 125.212 99.7513 125.184 100.031 125.128C100.311 125.072 100.563 124.965 100.787 124.806C101.011 124.647 101.193 124.433 101.333 124.162C101.473 123.882 101.539 123.518 101.529 123.07C101.539 122.687 101.483 122.37 101.361 122.118C101.249 121.857 101.091 121.651 100.885 121.502C100.689 121.343 100.456 121.231 100.185 121.166C99.924 121.101 99.644 121.068 99.3453 121.068Z" fill="white"/>
<rect x="34" y="119" width="18" height="12" rx="3" fill="#E4E2F4"/>
<rect x="34.5938" y="121.969" width="17.8125" height="2.375" fill="#260B5D"/>
<rect x="34.5" y="119.5" width="18" height="11.4688" rx="2.5" stroke="#ADA3C2"/>
<rect x="4" y="7" width="43" height="19" rx="9.5" fill="#8972AC"/>
<path d="M19.0753 16.148H15.0433V20H14.0473V11.6H15.0433V15.26H19.0753V11.6H20.0713V20H19.0753V16.148ZM21.6778 17C21.6778 15.984 21.9018 15.208 22.3498 14.672C22.8058 14.128 23.4578 13.856 24.3058 13.856C24.7538 13.856 25.1418 13.932 25.4698 14.084C25.8058 14.228 26.0818 14.44 26.2978 14.72C26.5138 14.992 26.6738 15.324 26.7778 15.716C26.8818 16.1 26.9338 16.528 26.9338 17C26.9338 18.016 26.7058 18.796 26.2498 19.34C25.8018 19.876 25.1538 20.144 24.3058 20.144C23.8578 20.144 23.4658 20.072 23.1298 19.928C22.8018 19.776 22.5298 19.564 22.3138 19.292C22.0978 19.012 21.9378 18.68 21.8338 18.296C21.7298 17.904 21.6778 17.472 21.6778 17ZM22.6738 17C22.6738 17.304 22.7018 17.596 22.7578 17.876C22.8218 18.156 22.9178 18.4 23.0458 18.608C23.1738 18.816 23.3418 18.984 23.5498 19.112C23.7578 19.24 24.0098 19.304 24.3058 19.304C25.3938 19.312 25.9378 18.544 25.9378 17C25.9378 16.688 25.9058 16.392 25.8418 16.112C25.7858 15.832 25.6938 15.588 25.5658 15.38C25.4378 15.172 25.2698 15.008 25.0618 14.888C24.8538 14.76 24.6018 14.696 24.3058 14.696C23.2178 14.688 22.6738 15.456 22.6738 17ZM29.0714 14V15.632C29.0714 15.848 29.0834 16.044 29.1074 16.22C29.1314 16.388 29.1794 16.536 29.2514 16.664C29.3234 16.784 29.4274 16.88 29.5634 16.952C29.6994 17.016 29.8794 17.048 30.1034 17.048C30.4634 17.048 30.7594 17.008 30.9914 16.928C31.2234 16.848 31.3994 16.76 31.5194 16.664V14H32.4794V20H31.5194V17.48C31.3914 17.56 31.1994 17.648 30.9434 17.744C30.6954 17.84 30.3514 17.888 29.9114 17.888C29.6154 17.888 29.3554 17.856 29.1314 17.792C28.9074 17.728 28.7194 17.616 28.5674 17.456C28.4154 17.296 28.2994 17.084 28.2194 16.82C28.1474 16.556 28.1114 16.224 28.1114 15.824V14H29.0714ZM35.2903 19.16C35.5863 19.208 35.8703 19.232 36.1423 19.232C36.6463 19.232 37.0183 19.136 37.2583 18.944C37.4983 18.744 37.6183 18.464 37.6183 18.104C37.6183 17.784 37.5023 17.52 37.2703 17.312C37.0383 17.104 36.6743 17 36.1783 17C36.0423 17 35.8943 17.004 35.7343 17.012C35.5743 17.02 35.4263 17.044 35.2903 17.084V19.16ZM35.2903 16.292C35.4823 16.26 35.6663 16.24 35.8423 16.232C36.0183 16.216 36.1863 16.208 36.3463 16.208C36.7623 16.208 37.1143 16.256 37.4023 16.352C37.6903 16.44 37.9223 16.564 38.0983 16.724C38.2823 16.884 38.4143 17.076 38.4943 17.3C38.5743 17.516 38.6143 17.748 38.6143 17.996C38.6143 18.724 38.3943 19.252 37.9543 19.58C37.5223 19.908 36.8463 20.072 35.9263 20.072C35.4143 20.072 34.8823 20.048 34.3303 20V14H35.2903V16.292Z" fill="white"/>
</svg>
