<svg width="22" height="21" viewBox="0 0 22 21" fill="none" xmlns="http://www.w3.org/2000/svg">
<path fill-rule="evenodd" clip-rule="evenodd" d="M17.2222 6.22222C17.2222 2.78578 14.4365 0 11 0C7.56358 0 4.7778 2.78578 4.7778 6.22222C4.7778 8.43961 5.93768 10.3861 7.68383 11.4881C3.9456 12.8851 1.20409 16.5781 0.914307 21H2.47375C2.83605 16.2093 6.51502 12.4444 11 12.4444C15.485 12.4444 19.164 16.2093 19.5263 21H21.0857C20.7959 16.5781 18.0544 12.8851 14.3162 11.4881C16.0624 10.3861 17.2222 8.43961 17.2222 6.22222ZM15.6667 6.22222C15.6667 3.64489 13.5773 1.55556 11 1.55556C8.42269 1.55556 6.33335 3.64489 6.33335 6.22222C6.33335 8.79955 8.42269 10.8889 11 10.8889C13.5773 10.8889 15.6667 8.79955 15.6667 6.22222Z" fill="white"/>
</svg>
