<svg width="73" height="16" viewBox="0 0 73 16" fill="none" xmlns="http://www.w3.org/2000/svg">
<rect x="1" y="1" width="71" height="13.6867" fill="white"/>
<path d="M13.0862 11.2651L12.6434 9.81151H10.4172L9.97442 11.2651H8.57935L10.7346 5.13342H12.3176L14.4813 11.2651H13.0862ZM12.3343 8.72552C11.925 7.40842 11.6939 6.66355 11.641 6.4909C11.5909 6.31826 11.5547 6.18181 11.5324 6.08157C11.4405 6.43799 11.1774 7.31931 10.743 8.72552H12.3343Z" fill="black"/>
<path d="M19.9889 7.0648C19.9889 8.50833 19.6848 9.58596 19.0766 10.2977C18.4685 11.0094 17.5479 11.3653 16.3149 11.3653C15.8805 11.3653 15.5514 11.3419 15.3275 11.2951V10.0521C15.6082 10.1223 15.9022 10.1574 16.2096 10.1574C16.7276 10.1574 17.1536 10.0822 17.4878 9.9318C17.8219 9.77809 18.0775 9.53918 18.2546 9.21505C18.4317 8.88759 18.5336 8.43816 18.5604 7.86676H18.5002C18.3064 8.18086 18.0825 8.4014 17.8286 8.52838C17.5746 8.65535 17.2572 8.71884 16.8763 8.71884C16.238 8.71884 15.7351 8.51501 15.3676 8.10735C15 7.69634 14.8162 7.12662 14.8162 6.39818C14.8162 5.61292 15.0384 4.99308 15.4829 4.53864C15.9306 4.08085 16.5388 3.85196 17.3073 3.85196C17.8486 3.85196 18.3215 3.97894 18.7258 4.23289C19.1334 4.48684 19.4459 4.85608 19.6631 5.34059C19.8803 5.82177 19.9889 6.3965 19.9889 7.0648ZM17.3374 5.09499C17.0166 5.09499 16.766 5.20526 16.5856 5.4258C16.4051 5.64634 16.3149 5.96378 16.3149 6.37813C16.3149 6.73232 16.3968 7.01301 16.5605 7.22018C16.7242 7.42735 16.9732 7.53094 17.3073 7.53094C17.6214 7.53094 17.8904 7.42903 18.1143 7.22519C18.3382 7.01802 18.4501 6.78078 18.4501 6.51346C18.4501 6.11582 18.3449 5.78 18.1343 5.506C17.9272 5.23199 17.6615 5.09499 17.3374 5.09499Z" fill="black"/>
<path d="M25.8532 7.0648C25.8532 8.50833 25.5491 9.58596 24.941 10.2977C24.3328 11.0094 23.4122 11.3653 22.1792 11.3653C21.7448 11.3653 21.4157 11.3419 21.1918 11.2951V10.0521C21.4725 10.1223 21.7665 10.1574 22.074 10.1574C22.5919 10.1574 23.0179 10.0822 23.3521 9.9318C23.6862 9.77809 23.9419 9.53918 24.1189 9.21505C24.296 8.88759 24.398 8.43816 24.4247 7.86676H24.3645C24.1707 8.18086 23.9469 8.4014 23.6929 8.52838C23.439 8.65535 23.1215 8.71884 22.7406 8.71884C22.1024 8.71884 21.5995 8.51501 21.2319 8.10735C20.8643 7.69634 20.6806 7.12662 20.6806 6.39818C20.6806 5.61292 20.9028 4.99308 21.3472 4.53864C21.7949 4.08085 22.4031 3.85196 23.1716 3.85196C23.713 3.85196 24.1858 3.97894 24.5901 4.23289C24.9978 4.48684 25.3102 4.85608 25.5274 5.34059C25.7446 5.82177 25.8532 6.3965 25.8532 7.0648ZM23.2017 5.09499C22.8809 5.09499 22.6303 5.20526 22.4499 5.4258C22.2694 5.64634 22.1792 5.96378 22.1792 6.37813C22.1792 6.73232 22.2611 7.01301 22.4248 7.22018C22.5885 7.42735 22.8375 7.53094 23.1716 7.53094C23.4857 7.53094 23.7547 7.42903 23.9786 7.22519C24.2025 7.01802 24.3144 6.78078 24.3144 6.51346C24.3144 6.11582 24.2092 5.78 23.9987 5.506C23.7915 5.23199 23.5258 5.09499 23.2017 5.09499Z" fill="black"/>
<path d="M31.7175 7.0648C31.7175 8.50833 31.4134 9.58596 30.8053 10.2977C30.1971 11.0094 29.2765 11.3653 28.0435 11.3653C27.6091 11.3653 27.28 11.3419 27.0561 11.2951V10.0521C27.3368 10.1223 27.6309 10.1574 27.9383 10.1574C28.4562 10.1574 28.8822 10.0822 29.2164 9.9318C29.5505 9.77809 29.8062 9.53918 29.9833 9.21505C30.1604 8.88759 30.2623 8.43816 30.289 7.86676H30.2289C30.0351 8.18086 29.8112 8.4014 29.5572 8.52838C29.3033 8.65535 28.9858 8.71884 28.6049 8.71884C27.9667 8.71884 27.4638 8.51501 27.0962 8.10735C26.7287 7.69634 26.5449 7.12662 26.5449 6.39818C26.5449 5.61292 26.7671 4.99308 27.2115 4.53864C27.6593 4.08085 28.2674 3.85196 29.036 3.85196C29.5773 3.85196 30.0501 3.97894 30.4544 4.23289C30.8621 4.48684 31.1745 4.85608 31.3917 5.34059C31.6089 5.82177 31.7175 6.3965 31.7175 7.0648ZM29.066 5.09499C28.7452 5.09499 28.4946 5.20526 28.3142 5.4258C28.1338 5.64634 28.0435 5.96378 28.0435 6.37813C28.0435 6.73232 28.1254 7.01301 28.2891 7.22018C28.4529 7.42735 28.7018 7.53094 29.036 7.53094C29.3501 7.53094 29.619 7.42903 29.8429 7.22519C30.0668 7.01802 30.1787 6.78078 30.1787 6.51346C30.1787 6.11582 30.0735 5.78 29.863 5.506C29.6558 5.23199 29.3902 5.09499 29.066 5.09499Z" fill="black"/>
<path d="M36.5852 11.2651L36.1425 9.81151H33.9162L33.4735 11.2651H32.0784L34.2336 5.13342H35.8167L37.9803 11.2651H36.5852ZM35.8334 8.72552C35.424 7.40842 35.1929 6.66355 35.14 6.4909C35.0899 6.31826 35.0537 6.18181 35.0314 6.08157C34.9395 6.43799 34.6764 7.31931 34.242 8.72552H35.8334Z" fill="black"/>
<path d="M42.4913 11.2651L42.0486 9.81151H39.8223L39.3795 11.2651H37.9845L40.1397 5.13342H41.7228L43.8864 11.2651H42.4913ZM41.7395 8.72552C41.3301 7.40842 41.099 6.66355 41.0461 6.4909C40.996 6.31826 40.9598 6.18181 40.9375 6.08157C40.8456 6.43799 40.5825 7.31931 40.1481 8.72552H41.7395Z" fill="black"/>
<path d="M57.9381 8.69879H56.6475V5.16516L56.66 4.58458L56.6809 3.9497C56.4665 4.16411 56.3175 4.30473 56.234 4.37156L55.5323 4.93544L54.9099 4.15854L56.8772 2.59222H57.9381V8.69879Z" fill="black"/>
<path d="M61.856 4.7976C62.4464 4.7976 62.9156 4.96328 63.2636 5.29465C63.6145 5.62601 63.7899 6.0799 63.7899 6.6563C63.7899 7.33853 63.5797 7.86342 63.1592 8.23098C62.7387 8.59855 62.1373 8.78233 61.3548 8.78233C60.6754 8.78233 60.1268 8.67234 59.7091 8.45236V7.33713C59.9291 7.45408 60.1853 7.55015 60.4777 7.62534C60.7701 7.69774 61.0471 7.73393 61.3089 7.73393C62.0969 7.73393 62.4909 7.41092 62.4909 6.7649C62.4909 6.14951 62.083 5.84182 61.2671 5.84182C61.1195 5.84182 60.9566 5.85713 60.7784 5.88776C60.6002 5.91561 60.4554 5.94624 60.344 5.97965L59.8303 5.70398L60.06 2.59222H63.3722V3.68655H61.1919L61.0791 4.88531L61.2253 4.85608C61.3952 4.81709 61.6054 4.7976 61.856 4.7976Z" fill="black"/>
<path d="M68.7896 8.69879H64.5209V7.80076L66.0538 6.25115C66.5077 5.78612 66.8042 5.46451 66.9435 5.28629C67.0827 5.1053 67.1829 4.93822 67.2442 4.78507C67.3055 4.63192 67.3361 4.4732 67.3361 4.30891C67.3361 4.06386 67.2679 3.88147 67.1314 3.76174C66.9978 3.642 66.8182 3.58213 66.5926 3.58213C66.3559 3.58213 66.1262 3.63643 65.9034 3.74503C65.6807 3.85363 65.4481 4.00817 65.2059 4.20866L64.5042 3.37747C64.8049 3.12128 65.0541 2.94029 65.2518 2.83447C65.4495 2.72866 65.6653 2.64791 65.8992 2.59222C66.1331 2.53374 66.3949 2.5045 66.6845 2.5045C67.066 2.5045 67.4029 2.57412 67.6953 2.71334C67.9877 2.85257 68.2146 3.04749 68.3761 3.29811C68.5376 3.54872 68.6184 3.83553 68.6184 4.15854C68.6184 4.43978 68.5683 4.70432 68.468 4.95214C68.3706 5.19719 68.2174 5.44919 68.0086 5.70816C67.8025 5.96712 67.4377 6.33608 66.9142 6.81502L66.129 7.55433V7.61281H68.7896V8.69879Z" fill="black"/>
<path d="M57.0567 11.6176H57.2238C57.3876 11.6176 57.5084 11.5903 57.5864 11.5357C57.6643 11.4811 57.7033 11.3954 57.7033 11.2784C57.7033 11.1626 57.6632 11.0802 57.583 11.0312C57.504 10.9821 57.3809 10.9576 57.2138 10.9576H57.0567V11.6176ZM57.0567 12.0386V12.9759H56.5388V10.5333H57.2506C57.5825 10.5333 57.8281 10.594 57.9874 10.7154C58.1466 10.8357 58.2263 11.0189 58.2263 11.2651C58.2263 11.4087 58.1867 11.5368 58.1076 11.6493C58.0286 11.7607 57.9166 11.8481 57.7718 11.9116C58.1394 12.4608 58.3789 12.8155 58.4902 12.9759H57.9155L57.3324 12.0386H57.0567Z" fill="black"/>
<path d="M60.7859 10.5333V12.1138C60.7859 12.2942 60.7452 12.4524 60.6639 12.5883C60.5837 12.7242 60.4673 12.8283 60.3147 12.9007C60.1621 12.9731 59.9817 13.0093 59.7734 13.0093C59.4593 13.0093 59.2154 12.9291 59.0416 12.7687C58.8678 12.6072 58.781 12.3867 58.781 12.1071V10.5333H59.2972V12.0286C59.2972 12.2168 59.3351 12.3549 59.4108 12.4429C59.4866 12.5309 59.6119 12.5749 59.7867 12.5749C59.956 12.5749 60.0786 12.5309 60.1543 12.4429C60.2312 12.3538 60.2696 12.2146 60.2696 12.0252V10.5333H60.7859Z" fill="black"/>
<path d="M62.8258 12.2976C62.8258 12.5181 62.7462 12.6919 62.5869 12.8188C62.4288 12.9458 62.2082 13.0093 61.9253 13.0093C61.6647 13.0093 61.4341 12.9603 61.2336 12.8623V12.3811C61.3985 12.4546 61.5377 12.5064 61.6513 12.5365C61.766 12.5666 61.8707 12.5816 61.9654 12.5816C62.079 12.5816 62.1659 12.5599 62.226 12.5164C62.2873 12.473 62.3179 12.4084 62.3179 12.3226C62.3179 12.2747 62.3046 12.2324 62.2778 12.1957C62.2511 12.1578 62.2116 12.1216 62.1592 12.0871C62.108 12.0525 62.0027 11.9974 61.8434 11.9217C61.6942 11.8515 61.5822 11.7841 61.5076 11.7195C61.433 11.6549 61.3734 11.5797 61.3288 11.4939C61.2843 11.4082 61.262 11.3079 61.262 11.1932C61.262 10.9771 61.335 10.8073 61.4809 10.6836C61.6279 10.56 61.8306 10.4982 62.089 10.4982C62.216 10.4982 62.3369 10.5132 62.4516 10.5433C62.5674 10.5734 62.6883 10.6157 62.8141 10.6703L62.6471 11.0729C62.5167 11.0195 62.4087 10.9821 62.3229 10.961C62.2383 10.9398 62.1548 10.9292 62.0723 10.9292C61.9743 10.9292 61.8991 10.9521 61.8468 10.9977C61.7944 11.0434 61.7683 11.103 61.7683 11.1765C61.7683 11.2222 61.7788 11.2623 61.8 11.2968C61.8212 11.3302 61.8546 11.3631 61.9002 11.3954C61.947 11.4266 62.0567 11.4834 62.2294 11.5658C62.4577 11.6749 62.6142 11.7847 62.6989 11.8949C62.7835 12.0041 62.8258 12.1383 62.8258 12.2976Z" fill="black"/>
<path d="M51.8976 1H1V14.6867H51.8976M51.8976 1H72V14.6867H51.8976M51.8976 1V14.6867" stroke="black"/>
<rect x="64.3013" y="10.4096" width="4.27711" height="0.855422" fill="white"/>
<rect x="64.3013" y="11.2651" width="4.27711" height="0.855422" fill="#0E0AFF"/>
<rect x="64.3013" y="12.1205" width="4.27711" height="0.855422" fill="#FF0A0A"/>
<path d="M68.6784 10.4096V10.3096H68.5784H64.3013H64.2013V10.4096V12.9759V13.0759H64.3013H68.5784H68.6784V12.9759V10.4096Z" stroke="black" stroke-width="0.2"/>
</svg>
