<svg width="18" height="18" viewBox="0 0 18 18" fill="none" xmlns="http://www.w3.org/2000/svg">
<path fill-rule="evenodd" clip-rule="evenodd" d="M7.62129 0C11.8304 0 15.2426 3.41217 15.2426 7.62129C15.2426 9.42317 14.6173 11.079 13.5718 12.3836C13.5995 12.4051 13.6262 12.4287 13.6517 12.4541L17.176 15.9784C17.5067 16.3091 17.5067 16.8453 17.176 17.176C16.8453 17.5067 16.3091 17.5067 15.9784 17.176L12.4541 13.6517C12.4287 13.6262 12.4051 13.5995 12.3836 13.5718C11.079 14.6173 9.42317 15.2426 7.62129 15.2426C3.41217 15.2426 0 11.8304 0 7.62129C0 3.41217 3.41217 0 7.62129 0ZM7.62129 1.69382C10.8951 1.69382 13.549 4.34773 13.549 7.62149C13.549 10.8953 10.8951 13.5492 7.62129 13.5492C4.34753 13.5492 1.69362 10.8953 1.69362 7.62149C1.69362 4.34773 4.34753 1.69382 7.62129 1.69382Z" fill="#260B5D"/>
</svg>
