<svg width="21" height="21" viewBox="0 0 21 21" fill="none" xmlns="http://www.w3.org/2000/svg">
<path fill-rule="evenodd" clip-rule="evenodd" d="M9 0C13.9706 0 18 4.02944 18 9C18 11.1278 17.2616 13.0832 16.027 14.6238C16.0597 14.6493 16.0912 14.677 16.1213 14.7071L20.2831 18.8689C20.6737 19.2594 20.6737 19.8926 20.2831 20.2831C19.8926 20.6737 19.2594 20.6737 18.8689 20.2831L14.7071 16.1213C14.677 16.0912 14.6493 16.0597 14.6238 16.027C13.0832 17.2616 11.1278 18 9 18C4.02944 18 0 13.9706 0 9C0 4.02944 4.02944 0 9 0ZM9 2C12.866 2 16 5.13401 16 9C16 12.866 12.866 16 9 16C5.13401 16 2 12.866 2 9C2 5.13401 5.13401 2 9 2Z" fill="white"/>
</svg>
