<svg width="37" height="35" viewBox="0 0 37 35" fill="none" xmlns="http://www.w3.org/2000/svg">
<path d="M17.5753 1.24588C17.9153 0.420173 19.0847 0.420179 19.4247 1.24589L23.6839 11.5909C23.8288 11.9426 24.1606 12.1817 24.5401 12.2078L35.5144 12.9619C36.4138 13.0237 36.7786 14.1506 36.086 14.7278L27.2468 22.0941C26.9437 22.3466 26.8174 22.7539 26.9245 23.1336L29.7708 33.2302C30.0281 34.1428 28.9893 34.8676 28.2215 34.3112L19.0868 27.6908C18.7368 27.4371 18.2633 27.4371 17.9132 27.6908L8.77848 34.3112C8.01071 34.8677 6.97188 34.1428 7.22916 33.2302L10.0754 23.1336C10.1825 22.7538 10.0562 22.3467 9.75313 22.0941L0.913975 14.7278C0.221385 14.1506 0.586174 13.0237 1.48562 12.9619L12.4598 12.2078C12.8393 12.1817 13.1711 11.9426 13.316 11.5909L17.5753 1.24588Z" fill="#B7A7D7"/>
</svg>
