<svg width="33" height="36" viewBox="0 0 33 36" fill="none" xmlns="http://www.w3.org/2000/svg">
<path fill-rule="evenodd" clip-rule="evenodd" d="M9.09717 24.604V35.858H14.3626V21.9003C12.648 22.9169 10.8421 23.8204 9.09717 24.604Z" fill="#B7A7D7"/>
<path fill-rule="evenodd" clip-rule="evenodd" d="M17.2878 20.0046V35.8582H22.5533V16.035C20.8297 17.4172 19.0233 18.7975 17.2878 20.0046Z" fill="#B7A7D7"/>
<path fill-rule="evenodd" clip-rule="evenodd" d="M0.906494 27.7088V35.8582H6.17194V25.8374C4.0496 26.6778 2.18118 27.3067 0.906494 27.7088Z" fill="#B7A7D7"/>
<path fill-rule="evenodd" clip-rule="evenodd" d="M25.4785 13.6279V35.858H30.744V9.02222C29.6588 10.0077 27.7493 11.7147 25.4785 13.6279Z" fill="#B7A7D7"/>
<path d="M0.614014 24.7422V22.402C0.614014 22.402 8.80471 19.4767 13.7776 16.2589C18.7506 13.0412 28.6964 3.38785 28.6964 3.38785L26.3562 1.04765L32.4992 0.755127V6.60562L30.4515 4.85047C30.4515 4.85047 21.9683 13.3337 15.5328 17.7216C9.09723 22.1094 0.614014 24.7422 0.614014 24.7422Z" fill="#B7A7D7"/>
</svg>
