<svg width="36" height="29" viewBox="0 0 36 29" fill="none" xmlns="http://www.w3.org/2000/svg">
<path fill-rule="evenodd" clip-rule="evenodd" d="M0.33667 2.26538C0.33667 1.16081 1.2321 0.265381 2.33667 0.265381H33.4396C34.5442 0.265381 35.4396 1.16081 35.4396 2.26538V10.7963H23.1536V10.7964C21.2149 10.7964 19.6433 12.368 19.6433 14.3067C19.6433 16.2454 21.2149 17.817 23.1536 17.817L23.1726 17.8169H35.4396V26.3478C35.4396 27.4523 34.5442 28.3478 33.4396 28.3478H2.33667C1.2321 28.3478 0.33667 27.4523 0.33667 26.3478V2.26538ZM23.1536 16.0617C24.1229 16.0617 24.9088 15.2759 24.9088 14.3066C24.9088 13.3372 24.1229 12.5514 23.1536 12.5514C22.1843 12.5514 21.3985 13.3372 21.3985 14.3066C21.3985 15.2759 22.1843 16.0617 23.1536 16.0617Z" fill="#B7A7D7"/>
</svg>
