<svg width="35" height="32" viewBox="0 0 35 32" fill="none" xmlns="http://www.w3.org/2000/svg">
<path fill-rule="evenodd" clip-rule="evenodd" d="M0.679571 24.37C1.58559 22.8599 14.5725 2.32234 15.4786 1.41618C16.3847 0.510014 17.5928 0.510254 17.5928 0.510254L17.5928 0.510583C17.5928 0.510583 18.8012 0.510583 19.405 1.1144C20.0088 1.71821 33.298 22.8599 34.204 24.37C35.11 25.8801 35.1102 27.6919 34.2041 29.2022C33.298 30.7124 31.7879 31.3162 30.8818 31.3163L17.8948 31.3165L17.5928 31.3166V31.3165L4.00174 31.3164C3.09573 31.3163 1.58556 30.7125 0.679494 29.2022C-0.226573 27.692 -0.226449 25.8801 0.679571 24.37ZM19.6723 25.3749C19.6723 26.5058 18.7555 27.4226 17.6246 27.4226C16.4937 27.4226 15.5769 26.5058 15.5769 25.3749C15.5769 24.244 16.4937 23.3272 17.6246 23.3272C18.7555 23.3272 19.6723 24.244 19.6723 25.3749ZM17.6246 9.87109C16.5107 9.87109 15.6236 10.8036 15.6792 11.9162L16.089 20.1113C16.1299 20.9296 16.8053 21.5721 17.6246 21.5721C18.444 21.5721 19.1194 20.9296 19.1603 20.1113L19.57 11.9162C19.6257 10.8036 18.7386 9.87109 17.6246 9.87109Z" fill="#B7A7D7"/>
</svg>
